<svg fill="none" height="75" viewBox="0 0 75 75" width="75" xmlns="http://www.w3.org/2000/svg"><path d="m59.375 9.375c1.6576 0 3.2473.6585 4.4194 1.8306s1.8306 2.7618 1.8306 4.4194v43.75c0 1.6576-.6585 3.2473-1.8306 4.4194s-2.7618 1.8306-4.4194 1.8306h-43.75c-1.6576 0-3.2473-.6585-4.4194-1.8306s-1.8306-2.7618-1.8306-4.4194v-43.75c0-1.6576.6585-3.2473 1.8306-4.4194s2.7618-1.8306 4.4194-1.8306zm-1.5625 48.4375v-16.5625c0-2.7019-1.0733-5.2931-2.9838-7.2037-1.9106-1.9105-4.5018-2.9838-7.2037-2.9838-2.6562 0-5.75 1.625-7.25 4.0625v-3.4688h-8.7188v26.1563h8.7188v-15.4063c0-2.4062 1.9375-4.375 4.3438-4.375 1.1603 0 2.2731.461 3.0935 1.2815.8205.8204 1.2815 1.9332 1.2815 3.0935v15.4063zm-36.3125-31.0625c1.3924 0 2.7277-.5531 3.7123-1.5377s1.5377-2.3199 1.5377-3.7123c0-2.9062-2.3438-5.2812-5.25-5.2812-1.4007 0-2.744.5564-3.7344 1.5468s-1.5468 2.3337-1.5468 3.7344c0 2.9062 2.375 5.25 5.2812 5.25zm4.3438 31.0625v-26.1563h-8.6563v26.1563z" fill="#111827"/></svg>