<svg height="15" viewBox="0 0 18 18" width="15" xmlns="http://www.w3.org/2000/svg"><path d="m10.4099 9 6.3-6.29c.1883-.1883.2941-.4437.2941-.71s-.1058-.52169-.2941-.71c-.1883-.1883-.4437-.294089-.71-.294089s-.5217.105789-.71.294089l-6.28996 6.3-6.29-6.3c-.1883-.1883-.4437-.294089-.71-.294089s-.5217.105789-.71.294089c-.1883.18831-.294093.4437-.294093.71s.105793.5217.294093.71l6.3 6.29-6.3 6.29c-.09373.093-.16812.2036-.21889.3254-.05077.1219-.076909.2526-.076909.3846s.026139.2627.076909.3846c.05077.1218.12516.2324.21889.3254.09296.0937.20356.1681.32542.2189s.25257.0769.38458.0769.26272-.0261.38458-.0769.23246-.1252.32542-.2189l6.29-6.3 6.28996 6.3c.093.0937.2036.1681.3255.2189.1218.0508.2525.0769.3845.0769.1321 0 .2628-.0261.3846-.0769.1219-.0508.2325-.1252.3254-.2189.0938-.093.1682-.2036.2189-.3254.0508-.1219.0769-.2526.0769-.3846s-.0261-.2627-.0769-.3846c-.0507-.1218-.1251-.2324-.2189-.3254z"/></svg>