<svg height="15" viewBox="0 0 20 12" width="15" xmlns="http://www.w3.org/2000/svg"><path d="m9 2h10c.2652 0 .5196-.10536.7071-.29289.1875-.18754.2929-.44189.2929-.70711 0-.265216-.1054-.519571-.2929-.707108-.1875-.187536-.4419-.292892-.7071-.292892h-10c-.26522 0-.51957.105356-.70711.292892-.18753.187537-.29289.441892-.29289.707108 0 .26522.10536.51957.29289.70711.18754.18753.44189.29289.70711.29289zm10 8h-18c-.265216 0-.519571.1054-.707108.2929-.187536.1875-.292892.4419-.292892.7071s.105356.5196.292892.7071c.187537.1875.441892.2929.707108.2929h18c.2652 0 .5196-.1054.7071-.2929s.2929-.4419.2929-.7071-.1054-.5196-.2929-.7071-.4419-.2929-.7071-.2929zm-18-3h18c.2652 0 .5196-.10536.7071-.29289.1875-.18754.2929-.44189.2929-.70711s-.1054-.51957-.2929-.70711c-.1875-.18753-.4419-.29289-.7071-.29289h-18c-.265216 0-.519571.10536-.707108.29289-.187536.18754-.292892.44189-.292892.70711s.105356.51957.292892.70711c.187537.18753.441892.29289.707108.29289z"/></svg>