<svg fill="none" height="75" viewBox="0 0 75 75" width="75" xmlns="http://www.w3.org/2000/svg"><path d="m37.5 6.25c-4.1038 0-8.1674.80831-11.9589 2.37876-3.7914 1.57044-7.2364 3.87234-10.1382 6.77414-5.8605 5.8605-9.1529 13.8091-9.1529 22.0971 0 13.8125 8.9688 25.5313 21.375 29.6875 1.5625.25 2.0625-.7187 2.0625-1.5625 0-.7187 0-2.6875 0-5.2812-8.6563 1.875-10.5-4.1876-10.5-4.1876-1.4375-3.625-3.4687-4.5937-3.4687-4.5937-2.8438-1.9375.2187-1.875.2187-1.875 3.125.2188 4.7812 3.2188 4.7812 3.2188 2.7188 4.75 7.3125 3.3437 9.0938 2.5937.2812-2.0312 1.0937-3.4062 1.9687-4.1875-6.9375-.7812-14.2187-3.4687-14.2187-15.375 0-3.4687 1.1875-6.25 3.2187-8.4687-.3125-.7813-1.4062-4.0313.3125-8.25 0 0 2.625-.8438 8.5938 3.1875 2.4687-.6875 5.1562-1.0313 7.8125-1.0313 2.6562 0 5.3437.3438 7.8125 1.0313 5.9687-4.0313 8.5937-3.1875 8.5937-3.1875 1.7188 4.2187.625 7.4687.3125 8.25 2.0313 2.2187 3.2188 5 3.2188 8.4687 0 11.9375-7.3125 14.5625-14.2813 15.3438 1.125.9687 2.1563 2.875 2.1563 5.7812v8.5625c0 .8438.5 1.8438 2.0937 1.5625 12.4063-4.1875 21.3438-15.875 21.3438-29.6875 0-4.1038-.8083-8.1674-2.3788-11.9589-1.5704-3.7914-3.8723-7.2364-6.7741-10.1382s-6.3468-5.2037-10.1382-6.77414c-3.7915-1.57045-7.8551-2.37876-11.9589-2.37876z" fill="#d1d5db"/></svg>