<svg fill="none" height="46" viewBox="0 0 50 46" width="50" xmlns="http://www.w3.org/2000/svg" xmlns:xlink="http://www.w3.org/1999/xlink"><clipPath id="a"><path d="m0 0h35.9775v35.9594h-35.9775z" transform="matrix(.941122 -.338068 .338457 .940982 3.96997 12.1628)"/></clipPath><ellipse cx="22.9873" cy="23.0001" fill="#fff" rx="22.9873" ry="22.9724"/><g clip-path="url(#a)"><path d="m12.8769 28.0678c.7961 2.2138 2.1026 4.2091 3.8139 5.8245 1.7112 1.6153 3.779 2.8052 6.036 3.4734s4.6397.7959 6.9552.3727c2.3156-.4232 4.4989-1.3853 6.3731-2.8085-3.1881.1294-6.3343-.7612-8.981-2.542s-4.6559-4.3591-5.7352-7.3598-1.1724-6.2672-.2659-9.3245c.9065-3.0572 2.7655-5.74565 5.3064-7.67426-2.352.09496-4.6486.74208-6.7038 1.88896-2.0553 1.1469-3.8114 2.7613-5.1262 4.7125-1.3148 1.9513-2.1513 4.1845-2.4419 6.5189s-.027 4.7044.7694 6.9181z" fill="#000"/></g></svg>