<svg width="46" height="46" viewBox="0 0 51 48" fill="none" xmlns="http://www.w3.org/2000/svg">
<circle cx="23" cy="24" r="23" fill="white"/>
<g clip-path="url(#clip0_335_322)">
<path d="M12.8842 29.0739C13.6807 31.2904 14.988 33.2881 16.7002 34.9054C18.4124 36.5226 20.4813 37.714 22.7396 38.383C24.9978 39.052 27.3818 39.1798 29.6986 38.7561C32.0154 38.3324 34.1999 37.3691 36.0752 35.9442C32.8854 36.0738 29.7374 35.1822 27.0892 33.3992C24.4411 31.6162 22.4308 29.0348 21.3509 26.0305C20.271 23.0262 20.1778 19.7558 21.0848 16.6949C21.9919 13.634 23.8518 10.9423 26.3942 9.01134C24.0408 9.10641 21.743 9.7543 19.6866 10.9026C17.6303 12.0508 15.8732 13.6672 14.5577 15.6208C13.2421 17.5744 12.4051 19.8103 12.1144 22.1475C11.8236 24.4847 12.0874 26.8576 12.8842 29.0739Z" fill="black"/>
</g>
<defs>
<clipPath id="clip0_335_322">
<rect width="36" height="36" fill="white" transform="translate(3.97229 13.1498) rotate(-19.7711)"/>
</clipPath>
</defs>
</svg>
