<svg fill="none" height="46" viewBox="0 0 46 46" width="46" xmlns="http://www.w3.org/2000/svg"><circle cx="23" cy="23" fill="#030712" r="23"/><path d="m35.675 33.635-2.115 2.115-2.7-2.685 2.13-2.13m-9.99-16.935c4.965 0 9 4.035 9 9s-4.035 9-9 9-9-4.035-9-9c0-4.98 4.035-9 9-9zm-12 10.5h-4.5v-3h4.5m4.14 11.565-2.7 2.685-2.115-2.115 2.685-2.7m-2.685-18.435 2.115-2.1 2.7 2.685-2.13 2.13m8.49-8.715h3v4.5h-3m9.36 2.085 2.7-2.685 2.115 2.1-2.685 2.715zm8.64 11.415h-4.5v-3h4.5m-18 13.5h3v4.5h-3" fill="#d1d5db"/></svg>