<svg fill="none" height="34" viewBox="0 0 35 34" width="35" xmlns="http://www.w3.org/2000/svg"><path d="m17.0124 28.3335c-2.2415 0-4.4327-.6647-6.2965-1.91-1.86374-1.2453-3.31637-3.0154-4.17416-5.0863s-1.08223-4.3496-.64493-6.5481c.4373-2.1984 1.51669-4.2178 3.10169-5.80281 1.585-1.585 3.6044-2.66439 5.8029-3.10169 2.1984-.4373 4.4772-.21286 6.5481.64493s3.8409 2.31041 5.0862 4.17417c1.2453 1.8638 1.91 4.0549 1.91 6.2965 0 3.0057-1.194 5.8884-3.3194 8.0138-2.1255 2.1255-5.0081 3.3195-8.0139 3.3195zm0-25.5c-2.8019 0-5.5409.83086-7.8706 2.38751s-4.14548 3.76918-5.21772 6.35779c-1.07224 2.5886-1.35279 5.4371-.80616 8.1851.54662 2.7481 1.89587 5.2724 3.87711 7.2536 1.98124 1.9813 4.50547 3.3305 7.25357 3.8771s5.5965.2661 8.1851-.8061c2.5886-1.0723 4.8012-2.8881 6.3578-5.2178 1.5567-2.3297 2.3875-5.0686 2.3875-7.8705 0-1.8604-.3664-3.7026-1.0783-5.4214-.712-1.71877-1.7555-3.28049-3.071-4.59598-1.3155-1.3155-2.8772-2.35901-4.596-3.07095s-3.5609-1.07837-5.4213-1.07837z" fill="#eff1f5"/></svg>